<?xml version="1.0" encoding="UTF-8"?>
<svg xmlns="http://www.w3.org/2000/svg" viewBox="0 0 128 128" role="img" aria-labelledby="title desc">
    <title id="title">KinderCare Logo</title>
    <desc id="desc">Rounded shield with K letter and leaf</desc>

    <defs>
        <linearGradient id="bgGradient" x1="20" y1="16" x2="108" y2="112" gradientUnits="userSpaceOnUse">
            <stop offset="0" stop-color="#79CCA5"/>
            <stop offset="1" stop-color="#3F9C73"/>
        </linearGradient>
        <linearGradient id="accentGradient" x1="56" y1="62" x2="88" y2="90" gradientUnits="userSpaceOnUse">
            <stop offset="0" stop-color="#56B88C"/>
            <stop offset="1" stop-color="#327D5E"/>
        </linearGradient>
    </defs>

    <rect x="14" y="14" width="100" height="100" rx="30" fill="url(#bgGradient)"/>
    <circle cx="64" cy="64" r="38" fill="#F7FBF9"/>

    <path d="M48 39h11v17.7l16.7-17.7h14L71.2 58.2 90 89H76.7L63.4 66.8 59 71.4V89H48V39z" fill="#1F2A24"/>
    <path d="M81 82c7-1.6 11.6-7.2 12.2-14.4-7 .8-12 4.8-14 10.8-2.7-2.2-6.1-3.7-10.2-4.2 2.7 5.7 6.8 9.7 12 11.8z" fill="url(#accentGradient)"/>
    <circle cx="64" cy="64" r="38" fill="none" stroke="#DCE8E1" stroke-width="2"/>
</svg>
